<?xml version="1.0" encoding="utf-8"?>
<svg version="1.1" xmlns="http://www.w3.org/2000/svg" xmlns:xlink="http://www.w3.org/1999/xlink" x="0px" y="0px" viewBox="0 0 1000 1000" enable-background="new 0 0 1000 1000" xml:space="preserve" fill="#3b3b3b">
<g><path d="M833.6,86.9H565.8H414.9H173L10,342.4v570.7h980V342.6L833.6,86.9z M812.1,125.3l129.2,211.4H586.5h-1.4l-16.3-211.4H812.1z M432.7,375.1H548V548H432.7V375.1z M530.3,125.3l16.3,211.4H434.3l16.3-211.4H530.3z M194.1,125.3H412l-16.3,211.4h-1.4H59.2L194.1,125.3z M48.4,874.7V375.1h344.3h1.5v211.4h192.2V375.1h1.5h363.6v499.6L48.4,874.7L48.4,874.7z"/><path d="M893.9,644.1H759.4c-10.6,0-19.2,8.6-19.2,19.2c0,10.6,8.6,19.2,19.2,19.2h134.5c10.6,0,19.2-8.6,19.2-19.2C913.1,652.7,904.5,644.1,893.9,644.1z"/><path d="M893.9,721h-269c-10.6,0-19.2,8.6-19.2,19.2c0,10.6,8.6,19.2,19.2,19.2h269c10.6,0,19.2-8.6,19.2-19.2C913.1,729.6,904.5,721,893.9,721z"/><path d="M893.9,797.8H721c-10.6,0-19.2,8.6-19.2,19.2c0,10.6,8.6,19.2,19.2,19.2h172.9c10.6,0,19.2-8.6,19.2-19.2C913.1,806.4,904.5,797.8,893.9,797.8z"/></g>
</svg>
