<?xml version="1.0" encoding="utf-8"?>
<svg version="1.1" xmlns="http://www.w3.org/2000/svg" xmlns:xlink="http://www.w3.org/1999/xlink" x="0px" y="0px" viewBox="0 0 1000 1000" enable-background="new 0 0 1000 1000" xml:space="preserve" width="15px" fill="white">
<g><path d="M369.1,10H86.5C44.2,10,10,44.2,10,86.5v282.6c0,42.2,34.2,76.5,76.5,76.5h282.6c42.2,0,76.5-34.2,76.5-76.5V86.5C445.6,44.2,411.3,10,369.1,10z M391.1,333.8c0,31.7-25.7,57.4-57.4,57.4H121.8c-31.7,0-57.4-25.7-57.4-57.4v-212c0-31.7,25.7-57.4,57.4-57.4h211.9c31.7,0,57.4,25.7,57.4,57.4V333.8z"/><path d="M913.5,10H630.9c-42.2,0-76.5,34.2-76.5,76.5v282.6c0,42.2,34.2,76.5,76.5,76.5h282.6c42.2,0,76.5-34.2,76.5-76.5V86.5C990,44.2,955.8,10,913.5,10z M935.6,333.8c0,31.7-25.7,57.4-57.4,57.4H666.3c-31.7,0-57.4-25.7-57.4-57.4v-212c0-31.7,25.7-57.4,57.4-57.4h211.9c31.7,0,57.4,25.7,57.4,57.4V333.8z"/><path d="M913.5,554.4H630.9c-42.2,0-76.5,34.2-76.5,76.5v282.6c0,42.2,34.2,76.5,76.5,76.5h282.6c42.2,0,76.5-34.2,76.5-76.5V630.9C990,588.7,955.8,554.4,913.5,554.4z M935.6,878.2c0,31.7-25.7,57.4-57.4,57.4H666.3c-31.7,0-57.4-25.7-57.4-57.4v-212c0-31.7,25.7-57.4,57.4-57.4h211.9c31.7,0,57.4,25.7,57.4,57.4V878.2z"/><path d="M370.1,554.4H85.4c-41.7,0-75.4,33.8-75.4,75.4v284.7c0,41.7,33.8,75.4,75.4,75.4h284.7c41.7,0,75.4-33.8,75.4-75.4V629.9C445.6,588.2,411.8,554.4,370.1,554.4z M391.1,878.2c0,31.7-25.7,57.4-57.4,57.4H121.8c-31.7,0-57.4-25.7-57.4-57.4v-212c0-31.7,25.7-57.4,57.4-57.4h211.9c31.7,0,57.4,25.7,57.4,57.4V878.2z"/></g>
</svg>
